<?xml version="1.0" encoding="UTF-8" standalone="no"?>
<svg
   enable-background="new 0 0 595.2803 227.2729"
   height="227.2729"
   viewBox="0 0 595.2803 227.2729"
   width="595.2803"
   version="1.1"
   id="svg40"
   sodipodi:docname="haxe-logo.svg"
   inkscape:version="1.1.1 (3bf5ae0d25, 2021-09-20)"
   xmlns:inkscape="http://www.inkscape.org/namespaces/inkscape"
   xmlns:sodipodi="http://sodipodi.sourceforge.net/DTD/sodipodi-0.dtd"
   xmlns="http://www.w3.org/2000/svg"
   xmlns:svg="http://www.w3.org/2000/svg">
  <defs
     id="defs44" />
  <sodipodi:namedview
     id="namedview42"
     pagecolor="#505050"
     bordercolor="#eeeeee"
     borderopacity="1"
     inkscape:pageshadow="0"
     inkscape:pageopacity="0"
     inkscape:pagecheckerboard="0"
     showgrid="false"
     inkscape:snap-object-midpoints="true"
     inkscape:zoom="1.5988531"
     inkscape:cx="248.30298"
     inkscape:cy="87.25004"
     inkscape:window-width="1920"
     inkscape:window-height="1001"
     inkscape:window-x="-9"
     inkscape:window-y="-9"
     inkscape:window-maximized="1"
     inkscape:current-layer="g31550" />
  <g
     id="g31550"
     transform="translate(-4.792525)">
    <g
       transform="matrix(0.24008588,0,0,0.24008588,-37.314157,-238.23246)"
       id="g28">
      <path
         d="m 658.2683,1326.8569 -112.0001,-10.234 -87.9161,-39.744 h 99.956 l 99.9601,49.9292"
         fill="#fbc712"
         id="path2" />
      <path
         d="m 658.2683,1326.8569 118.6993,-13.7483 81.225,-36.2297 h -99.9683 l -99.956,49.9292"
         fill="#fbc712"
         id="path4" />
      <path
         d="m 658.2683,1626.7332 99.956,11.8976 99.9683,38.0764 h -99.9683 l -99.956,-50.0309"
         fill="#f6871f"
         id="path6" />
      <path
         d="m 658.2683,1626.7332 -99.9601,10.7424 -99.956,39.2316 h 99.956 l 99.9601,-50.0309"
         fill="#f15e22"
         id="path8" />
      <path
         d="m 508.3302,1476.795 -14.753,117.3611 -35.225,82.551 v -99.952 l 49.978,-100.017"
         fill="#fcee23"
         id="path10" />
      <path
         d="m 508.3302,1476.795 -11.2386,-107.481 -38.7394,-92.4352 v 99.9561 l 49.978,99.9032"
         fill="#fcee23"
         id="path12" />
      <path
         d="m 808.2064,1476.795 14.4235,-108.6525 35.5545,-91.2637 v 99.9561 l -49.978,99.9032"
         fill="#f04923"
         id="path14" />
      <path
         d="m 808.2064,1476.795 9.7499,110.3324 40.2281,89.5797 v -99.952 l -49.978,-100.017"
         fill="#f04923"
         id="path16" />
      <path
         d="m 458.3521,1276.8789 199.9162,49.978 v 149.8527 H 508.3302 l -49.978,-199.729"
         fill="#f8b218"
         id="path18" />
      <path
         d="m 458.3521,1676.7072 49.978,-199.9121 149.9381,-0.085 v 149.9097 l -199.9162,49.8845"
         fill="#f89d1c"
         id="path20" />
      <path
         d="M 858.1926,1276.8789 808.2065,1476.787 658.2684,1476.71 V 1326.8492 L 858.1927,1276.981"
         fill="#f37321"
         id="path22" />
      <path
         d="m 858.1926,1676.7072 -199.9243,-49.974 v -150.0236 l 149.9381,0.085 49.9861,199.7087"
         fill="#f15e22"
         id="path24" />
      <path
         d="M 658.2683,1326.8569 508.3302,1476.795 658.2683,1626.7331 808.2064,1476.7869 658.2683,1326.808"
         fill="#f6871f"
         id="path26" />
    </g>
    <g
       fill="#ffffff"
       transform="matrix(0.63314038,0,0,0.63314038,-22.86723,-690.81174)"
       id="g38">
      <path
         d="m 335.9622,1223.9861 h 31.149 v 35.0975 h 29.1577 v -35.0975 h 31.149 v 101.0742 h -31.149 v -40.061 h -29.1577 v 40.061 h -31.149 z"
         id="path30" />
      <path
         d="m 495.9565,1288.954 -9.074,-31.132 h -0.2807 l -9.7604,31.132 z m -24.4858,-64.9679 h 30.4163 l 36.8174,101.0742 h -32.278 l -4.2448,-14.4263 h -32.1361 l -4.527,14.4263 h -31.3001 l 37.2523,-100.9261"
         id="path32"
         style="fill:#ffffff;fill-opacity:1" />
      <path
         d="m 572.4138,1271.2671 -33.2729,-47.2842 h 36.5212 l 15.2869,27.4272 15.0184,-27.4596 h 34.5331 l -32.4045,47.568 36.0847,53.5139 h -37.5099 l -17.2734,-30.1633 -17.838,30.1633 h -35.676 l 36.5305,-53.8177"
         id="path34" />
      <path
         d="m 650.5693,1223.9861 h 83.6604 v 25.8971 h -52.5191 v 12.6061 h 47.7114 v 24.0817 h -47.7114 v 12.5923 h 54.0847 v 25.9032 h -85.226 z"
         id="path36" />
    </g>
    <g
       id="g875"
       transform="matrix(0.13285726,0,0,0.13757671,464.11272,84.143287)"
       style="fill:#ffffff;fill-opacity:1">
      <polygon
         id="Y"
         points="143.978,224.949 87.702,224.949 87.702,137.674 0,0 63.25,0 119.018,88.646 175.243,0 235.793,0 143.978,137.674 "
         style="fill:#ffffff;fill-opacity:1" />
      <path
         id="A"
         fill="#cb171e"
         d="M 330.294,175.451 H 228.433 l -20.717,50.024 H 162.61 L 257.99,0.526 h 46.137 l 91.51,224.949 h -48.2 l -17.144,-50.024 z m -16.92,-44.911 -31.226,-82.55 -34.837,82.55 z"
         style="fill:#ffffff;fill-opacity:1" />
      <polygon
         id="M"
         points="272.939,470.602 318.318,470.602 318.318,250.177 256.358,250.177 201.381,349.883 149.021,250.177 87.701,250.177 87.701,470.647 135.004,470.647 135.004,318.569 184.509,420.789 221.743,420.789 272.939,314.976 "
         style="fill:#ffffff;fill-opacity:1" />
      <polygon
         id="L"
         points="512,422.737 512,422.735 395.638,422.735 395.638,250.125 347.442,250.125 347.442,469.647 512,469.647 "
         style="fill:#ffffff;fill-opacity:1" />
    </g>
  </g>
</svg>
